<svg xmlns="http://www.w3.org/2000/svg" viewBox="0 0 64 64">
  <circle cx="32" cy="32" r="28" fill="#ec4899" />
  <path d="M32 8c-13.255 0-24 10.745-24 24s10.745 24 24 24 24-10.745 24-24-10.745-24-24-24zm0 4c11.046 0 20 8.954 20 20s-8.954 20-20 20-20-8.954-20-20 8.954-20 20-20z" fill="#db2777"/>
  <ellipse cx="32" cy="32" rx="12" ry="20" fill="none" stroke="#fce7f3" stroke-width="2" transform="rotate(30 32 32)"/>
  <ellipse cx="32" cy="32" rx="12" ry="20" fill="none" stroke="#fce7f3" stroke-width="2" transform="rotate(-30 32 32)"/>
  <ellipse cx="32" cy="32" rx="12" ry="20" fill="none" stroke="#fce7f3" stroke-width="2" transform="rotate(90 32 32)"/>
</svg>
